<svg id="Layer_1" data-name="Layer 1" xmlns="http://www.w3.org/2000/svg" viewBox="0 0 1588.33 1357.94"><defs><style>.cls-1{fill:#050606;}.cls-2{fill:#ec6a5b;}</style></defs><path class="cls-1" d="M382,21.71c47.42-.32,94,6.14,140.24,16.37,59.07,13.08,109.13,43.28,155.47,81,41.51,33.76,75.84,73.82,106.09,117.65a95.36,95.36,0,0,0,7.61,9.91c5.67,6.26,11.53,6.39,17-.06,5.06-6,9.5-12.45,14.09-18.79,18.47-25.54,37.34-50.79,60-72.85,35.72-34.79,74.32-65.84,118.76-89,33.15-17.31,68.7-26.85,105.3-33.59a644.91,644.91,0,0,1,187.65-7.31c43.13,4.71,82.79,21.2,119.9,43.51,41.7,25.08,77.15,57.16,104.33,97.57,22.67,33.71,37.65,71.16,49.56,109.91,25.93,84.34,31,170.46,21.86,257.69-3.19,30.26-11.6,59.46-21.67,88.17A756.5,756.5,0,0,1,1503,761.5c-33.07,55.08-75.9,101.37-125.66,141.8-34.12,27.72-66.69,57.37-100.7,85.23-21.63,17.71-45,33.33-67,50.6-31.46,24.67-62.06,50.46-93.68,74.93q-56.32,43.57-113.84,85.62c-22.41,16.47-45.54,32-68.6,47.56-32.12,21.69-56,50.49-73.84,84.55-4.18,8-8.2,16-12.64,23.85-8.52,15-22.86,20.85-38.82,23.29-8.2,1.26-15.07-3-21.47-7.91-14.82-11.25-27.67-24.49-39.48-38.79-12.41-15-24.86-30-37.07-45.17a197.47,197.47,0,0,0-44.68-40.38c-57.63-38.57-114-78.94-168.48-121.83-33.78-26.58-66.68-54.28-100.44-80.89-18.31-14.43-38.23-26.83-56.28-41.55-28.92-23.57-56.84-48.36-85.25-72.54-22.08-18.78-44.72-36.93-66.33-56.22-46.05-41.11-81.46-90.45-110.21-144.83-26.83-50.74-48.66-103.42-62-159.34-9.35-39-11.26-78.74-10.56-118.7.86-48.14,5.2-95.92,16.79-142.69a552.27,552.27,0,0,1,37-103.92c22.44-47.41,56.13-85.25,97.51-116.55A329.9,329.9,0,0,1,294.32,26.43c28.26-5.55,57-5,85.71-4.73ZM117.37,452.53c-.05,47.91,2,71.31,9.11,98.11,11.78,44.48,29.52,86.59,51.06,127.22,26,49,59.2,92.08,102,127.63q35.73,29.7,71.31,59.6c21.27,17.93,42,36.55,63.65,53.95,16.22,13,34.08,24,50.4,36.88,34.76,27.47,68.28,56.55,103.62,83.22,48.38,36.52,97.7,71.82,147.18,106.85,23.85,16.87,48,33.16,67.57,55.14,2,2.24,3.92,4.56,6,6.67,7.61,7.58,13.83,7.52,21.51-.14.94-.94,1.86-1.91,2.73-2.92a232.75,232.75,0,0,1,41.43-38.22c31.49-22.39,63.59-43.94,95-66.49,35.57-25.56,71-51.33,104.69-79.42,31.34-26.11,63.65-51.06,95.77-76.23,20.83-16.32,42.59-31.49,63-48.29,32.94-27.08,64.92-55.31,97.66-82.62,31.12-26,59.58-54.26,82.42-87.94,29.75-43.86,52.28-91.23,69.78-141.15,9.76-27.82,17-56.19,18.08-85.69.88-24.61.88-49.3,0-73.92A445.27,445.27,0,0,0,1459,300.33c-15.15-45.75-36.54-87.14-75.43-117.64-34.48-27-72.56-45.84-116.69-48.69-47-3.05-93.89-1.19-140.33,7.7-25.92,5-51.59,10.74-74.94,23.65A394.9,394.9,0,0,0,935.23,263c-31.11,38.31-57.82,79-70.74,127.47-2.21,8.3-6.32,16.1-9.59,24.11-9.07,22.23-28.47,30.14-49.67,32.35-26.14,2.72-49.6-12.84-60.27-36.83-5-11.26-9.56-22.71-14.36-34.06-7-16.56-12.14-34.24-21.4-49.41-24.68-40.47-52.76-78.45-88.83-110-21.8-19.05-44.73-36.4-70.11-50.26-36.76-20.07-77.42-25.95-118.18-30.66a480.19,480.19,0,0,0-53.38-2.69c-19.45,0-39.05.08-58.34,2.29-26.63,3-51.28,13.19-74.21,26.83-37.14,22.08-67.22,51-86.16,90.63a422.74,422.74,0,0,0-28.22,78.38C120.88,374.05,117.12,417.81,117.37,452.53Z" transform="translate(-5.77 -21.22)"/><path class="cls-2" d="M117.37,452.53c-.25-34.72,3.51-78.48,14.4-121.33A422.74,422.74,0,0,1,160,252.82c18.94-39.59,49-68.55,86.16-90.63,22.93-13.64,47.58-23.78,74.21-26.83,19.29-2.21,38.89-2.34,58.34-2.29a480.19,480.19,0,0,1,53.38,2.69c40.76,4.71,81.42,10.59,118.18,30.66,25.38,13.86,48.31,31.21,70.11,50.26,36.07,31.53,64.15,69.51,88.83,110,9.26,15.17,14.41,32.85,21.4,49.41,4.8,11.35,9.36,22.8,14.36,34.06,10.67,24,34.13,39.55,60.27,36.83,21.2-2.21,40.6-10.12,49.67-32.35,3.27-8,7.38-15.81,9.59-24.11C877.41,342,904.12,301.34,935.23,263a394.9,394.9,0,0,1,116.42-97.68c23.35-12.91,49-18.69,74.94-23.65C1173,132.81,1220,131,1266.92,134c44.13,2.85,82.21,21.66,116.69,48.69,38.89,30.5,60.28,71.89,75.43,117.64a445.27,445.27,0,0,1,22.28,124.44c.89,24.62.89,49.31,0,73.92-1.06,29.5-8.32,57.87-18.08,85.69-17.5,49.92-40,97.29-69.78,141.15-22.84,33.68-51.3,62-82.42,87.94-32.74,27.31-64.72,55.54-97.66,82.62-20.43,16.8-42.19,32-63,48.29-32.12,25.17-64.43,50.12-95.77,76.23-33.72,28.09-69.12,53.86-104.69,79.42-31.38,22.55-63.48,44.1-95,66.49a232.75,232.75,0,0,0-41.43,38.22c-.87,1-1.79,2-2.73,2.92-7.68,7.66-13.9,7.72-21.51.14-2.12-2.11-4-4.43-6-6.67-19.59-22-43.72-38.27-67.57-55.14-49.48-35-98.8-70.33-147.18-106.85-35.34-26.67-68.86-55.75-103.62-83.22-16.32-12.9-34.18-23.87-50.4-36.88-21.68-17.4-42.38-36-63.65-53.95q-35.52-30-71.31-59.6c-42.76-35.55-76-78.62-102-127.63-21.54-40.63-39.28-82.74-51.06-127.22C119.38,523.84,117.32,500.44,117.37,452.53Z" transform="translate(-5.77 -21.22)"/></svg>