<svg id="Layer_1" data-name="Layer 1" xmlns="http://www.w3.org/2000/svg" viewBox="0 0 1750.04 998.2"><defs><style>.cls-1{fill:#cbe1af;}.cls-2{fill:#f9f7f4;}.cls-3{fill:#443a26;}.cls-4{fill:#fcbe6a;}</style></defs><path class="cls-1" d="M1975.68,1031.48q24.21,104.89-53.47,179.43c-24,23-48.74,45.44-72.62,68.68-37.86,36.83-83.56,53.57-135.69,53.94-7.68,0-12.85,1.92-17.78,8.06-9.37,11.67-19.11,23.22-29.92,33.54-55.72,53.23-120.38,66-192.92,41.29-2.51-.85-5-1.81-8.11-3-53,56.24-117.3,78.21-192,55.26-74.47-22.89-114.91-77.11-127.16-154-65.16,11.5-122-4.79-169.9-52.1-3.28,1.4-6.6,2.75-9.87,4.21-86.92,39-187.95,5.15-233.27-78.58-24-44.37-27.17-91.29-14.44-139.66.42-1.61.9-3.21,1.35-4.81l2.82-1.75c1.29,3.29,2.57,6.58,3.74,9.56,12.48-.12,15.93-3.38,16.27-14.12.49-15.58,1.12-31.16,1.69-46.74,8.11-15.63,16.14-31.32,24.41-46.87,2.37-4.47.09-7.49-2.05-10.94-13.36-21.52-22.4-44.73-25.34-69.92-8.44-72.07,16.25-130.36,74.72-173.4,27.89-20.53,57-39.43,85.63-58.91,34.26-23.28,72.2-35.89,113.58-36,48.05-.17,89.9,16.59,125.05,49.61,1.92,1.8,3.91,3.53,6.43,5.81,3-2.38,5.91-4.46,8.54-6.86,30.53-27.82,61.2-55.42,89.48-85.69,63.26-67.71,162.51-78.25,237.27-25.72,11.08,7.79,20.54,17.89,30.61,27.09,1.64,1.5,2.51,3.85,4.28,6.67,10-9.66,18.57-17.46,26.56-25.83,21.76-22.8,46.86-40.32,76.9-50.52,107.32-36.43,221.91,33.94,237.06,145.85,5.35,39.52-1.58,77-20.6,112.11-8.57,15.82-17.49,31.45-26.21,47.18-1.92,3.46-3.69,7-5.72,10.86,2.54,2.71,4.7,5.2,7,7.49a159.81,159.81,0,0,1,28,36.29,31.25,31.25,0,0,0,11.68,11.87c15.82,9.56,29.37,21.86,41.45,35.79a40.93,40.93,0,0,1,3.2,4.94c-.61,1.5-1,3.2-1.88,4.48-21.38,29.58-26.71,62.65-19.84,97.69,3.92,20,14.33,35.82,36.12,40.75,3,1.93,5.77,4.35,9,5.7a33,33,0,0,0,29.56-1.46C1958.51,1043.64,1966.93,1037.28,1975.68,1031.48Zm-115.08-1.69c-3.43-28.24-17.73-49.37-41.9-64,1.29-7.16,2.07-14.45,4-21.43,2.82-10.25,3.18-9.91,13.49-10.44a159.41,159.41,0,0,0,20.65-2.48c2.28-.41,5.81-2.52,6-4.17.55-4.76.56-10-.87-14.45-1.38-4.34-6.27-2.29-9.73-2.56a27.92,27.92,0,0,0-4,.19c-2.51-8-2.51-8.06-9.87-8.26-4.32-.12-8.65-.15-13-.21.15-6.89.33-13.78.45-20.67.27-16,.26-16-15.56-18.42-3.8-6.34-13.12-10.11-19-7.05a11.56,11.56,0,0,0-5,6.42c-.94,3-.46,6.52-.59,9.81-16-20.41-37.41-31.35-63.31-34.87.51-2.41.55-4.09,1.2-5.5,11-23.9,21.52-48,36-70.15,17.14-26.15,21.06-54.3,9.4-83.83-14.57-36.9-53.31-63-99.27-54.56-26.77,4.91-46.49,20.17-61,43-11.42,18-23.59,35.48-35.64,53-2,3-4,6.66-8.21,7.32.53-9.46,1.46-18.37,1.45-27.28,0-31-13.82-55.28-38.46-73.1-31.23-22.58-72-21.41-104.63,1.88-8.19,5.85-8.19,5.85-14.25-1.54a89.29,89.29,0,0,0-95.59-28.69c-15.64,4.82-28.88,13.46-40.75,24.47-18.3,17-36.41,34.21-55,50.93-15.58,14-31.67,27.51-47.57,41.2-6,5.14-12,10.19-18.64,15.81-1.35-3.08-2.44-5.06-3.11-7.18-6-19-16.23-35-32.79-46.44-19.58-13.5-41.07-19.43-65.08-17.12-21.11,2-39,11.23-55.45,23.38q-52.69,38.79-104.72,78.48a86.76,86.76,0,0,0-18.48,19.48c-16,23.32-20.12,49-11.79,76.17,1.87,6.09,1.64,10.45-3,15.28-5.48,5.77-10,12.49-14.86,18.8A512.7,512.7,0,0,0,778,997.83c-13.19,29.79-11.39,58.95,5.44,87,18.21,30.37,56.8,47.39,88.81,41.9,13.38-2.29,25.55-7.28,37.71-12.71,3.49-1.56,7-3,12-5.07,3.71,35.21,18.8,62,49.53,77.51,31.16,15.75,61.84,11.7,92.28-6.76,1.73,32.91,12.71,59.85,39.87,77.93s56.58,18.54,87.85,7.57c-.78,4.35-1.11,6.89-1.7,9.37-3,12.4-4,24.68-2,37.54,6.2,39.66,42.82,72.48,83,73.86,24.54.85,45.52-7.84,64.74-22.33,11.7-8.81,23.74-17.19,35.8-25.52,3.09-2.13,6.81-3.35,10.27-5,3.2,4.1,5.64,7.25,8.1,10.38a82.07,82.07,0,0,0,36.58,26.85c30.36,11.23,58.74,6.83,85.67-10.77,18.11-11.84,36.83-22.75,55-34.43,5.47-3.51,9.77-3.58,15.54-.34a84.18,84.18,0,0,0,47.1,10.76c18.37-1.14,34.68-8.27,50-18.54,22.1-14.85,44.73-28.9,67-43.48,4-2.6,7.57-3,12.14-1.79a77.63,77.63,0,0,0,37.61,1c42.44-9.4,65.32-38.89,77.23-78.18,4.7-15.48,6.37-31.89,9.31-47.9a56.79,56.79,0,0,0,1-9.91c0-22.58-7.65-42.43-22-59.61-3.39-4.05-4.37-7.71-3-12.74s1.77-10.46,2.6-15.7c2.67-2.47,5.29-5,8.05-7.38,3.67-3.15,4.11-6.49.79-10.56Z" transform="translate(-486.3 -479.5)"/><path class="cls-2" d="M2182.62,1173.27a52.49,52.49,0,0,1-5.95.64c-7.22,0-8.66-1.28-9-8.67-.79-16.77,2.5-33,5.58-49.44,3.61-19.25,6.18-38.71,9-58.11a45.43,45.43,0,0,0-8.88-34.88c-17.45-23.28-30.41-49.2-44.47-74.49-5-9-10.84-17.53-16.56-26.1-4.44-6.66-8.78-13.28-9.72-21.34,10.14-11.72,15.25-11.83,25.81-.76,2.88,5.54,5.47,11.26,8.68,16.61,12.91,21.56,28.17,41.7,38.71,64.69,1.92,4.19,4.41,8.18,9.74,9.39a33,33,0,0,0,2.33-5.47,31.94,31.94,0,0,0,.35-5.89c2.51-22,4.8-44,7.63-66,1.08-8.42,3.39-16.68,5.1-24.81,8.7-1.35,14.17,1.4,18.11,7.56.28,5.29,2.06,11,.57,15.78-5,15.87-4.73,32.17-5.88,48.39-.57,8-1.1,16-2.78,23.76-6.91,32-9.75,64.43-13.13,96.86-2.86,27.45-6.62,54.81-10,82.2C2187.33,1167.17,2186.77,1171.17,2182.62,1173.27Z" transform="translate(-486.3 -479.5)"/><path class="cls-2" d="M722.73,1042l-2.82,1.75H711c-4.2-6.94-4.69-14.21-3.31-21.47,2.78-14.58,2-29.09,1.1-43.78s-.84-29.26-4.91-43.49c-2.91-10.21-4.86-20.86-13.35-28.43-4.46-2.52-8.83-5.29-13.49-7.43-1.46-.68-4-.22-5.52.67-7.71,4.56-15.73,9.09-19.48,17.82-4.94,11.53-10.36,23-13.89,35-7.45,25.3-8.7,51.56-9.83,77.76-.17,3.89.76,8.05-2.84,11.06-2.28.42-4.55,1-6.85,1.23-4.34.49-7.22-1.68-8-5.75a125.15,125.15,0,0,1-2-15.68c-.36-5.28-.05-10.6-.3-15.89q-2.09-45.24-4.29-90.48c-.09-2,0-4,.11-6,.1-3.39.26-6.81,4.2-8.19s7.91-1.67,11.2,1.46a68,68,0,0,1,5.12,6.08l3,6.13a27.45,27.45,0,0,0,3.24-2.83,21.23,21.23,0,0,0,1.81-3.24c2.77-4.48,5.62-8.93,8.29-13.47,7.3-12.39,19.4-15.57,32.28-15.61,11.93,0,22.49,5,31.58,12.81,8.1,9.06,14,19.42,16.63,31.25,2.1,9.35,4.32,18.89,4.57,28.4.71,26.83.57,53.69.38,80.54C726.41,1035.46,724,1038.71,722.73,1042Z" transform="translate(-486.3 -479.5)"/><path class="cls-2" d="M512.44,918.7l-11.44,2c-6.27-10.47-5.33-17.09,4.1-23,4.95-3.1,10.76-6,16.43-6.55a190.51,190.51,0,0,1,34.6-.73c4.68.37,9,4.92,13.56,7.57,2.35,5.45,5.45,10.71,6.91,16.39,4,15.38,7.91,30.82,10.58,46.45,3.37,19.66,3.77,39.59,2.5,59.55-.49,7.8-3.84,12.49-11.44,15.19-20.58,7.33-41.46,11.57-63.38,8.77-9.46-2.22-16.74-7.44-23-14.92-3.91-4.69-6.14-9.28-5.46-15.3.45-4,.62-8,1.13-11.92,1.5-11.7,8-19.56,19-23.53,14.41-5.22,29-7.21,43.93-1.71,4,1.48,8.22,2.49,12.25,3.69,5.27-11.17,1.63-46.79-6.17-63.25-3.63-7.3-9.95-9.46-17.19-7.55C530.24,912.28,521.4,915.71,512.44,918.7Zm11.13,104.89c15.16,5.75,27.44.51,39.68-10.15l-7.87-11.61c-14.41-14.34-33.8-7.61-45,3.07-5.34,5.11-3.72,11.63,3.1,15.1C516.65,1021.6,520.2,1022.42,523.57,1023.59Z" transform="translate(-486.3 -479.5)"/><path class="cls-2" d="M1910.8,1044.47c-21.79-4.93-32.2-20.73-36.12-40.75-6.87-35-1.54-68.11,19.84-97.69.92-1.28,1.27-3,1.88-4.48,2.24-1.37,4.58-2.61,6.68-4.16,17.18-12.73,35.89-12.62,52.57.38,1.59,2.11,3.28,4.15,4.77,6.33,19.47,28.57,26.17,59.47,15,92.75C1966,1025,1937.8,1045.19,1910.8,1044.47Zm33.51-125.42c-13-12.57-16.73-9.51-27.49-2.2-5.5,3.73-9.73,10-13.2,15.92A92.9,92.9,0,0,0,1891,978.49c-.18,9.16.67,18.82,3.5,27.45,3.13,9.49,9.86,17.09,21.28,17.91,20.71-.78,37.19-18.32,40.7-38.14C1967.16,970.15,1963.22,933.78,1944.31,919.05Z" transform="translate(-486.3 -479.5)"/><path class="cls-3" d="M2182.62,1173.27c4.15-2.1,4.71-6.1,5.21-10.07,3.39-27.39,7.15-54.75,10-82.2,3.38-32.43,6.22-64.9,13.13-96.86,1.68-7.76,2.21-15.81,2.78-23.76,1.15-16.22.91-32.52,5.88-48.39,1.49-4.73-.29-10.49-.57-15.78,12.7.59,16.8,4.59,17.13,16.76,0,1.66.37,3.44-.1,5-6.41,20.92-4.57,42.81-7.66,64.1-1.95,13.46-4.91,26.78-6.65,40.26-2.94,22.7-5.15,45.5-7.88,68.23-3.23,27-6.69,54-10.06,81-.56,4.44-1.69,8.44-6.69,10.08C2189.54,1184.11,2185.58,1181.92,2182.62,1173.27Z" transform="translate(-486.3 -479.5)"/><path class="cls-2" d="M2017.69,1036c-12.17,2.35-15.32.31-15.84-11.69-.65-15.15.17-30.39-4.14-45.17q-1.21-15.37-2.45-30.77c.29-9,.32-18,1-26.92.24-3,1.48-7,3.65-8.43,3.22-2.15,7.19-1.78,11,1.28,7,5.69,7.38,5.57,14.65.77,13.47-8.9,27.9-7,42.44-4.2,7.17,1.39,14.46,2.63,19.11,9.26,3.42,5.68,2,11.37.55,16.83-7.46,3.6-13.55.63-19.19-2.91-14.2-8.91-37.73,0-43.15,16a118.07,118.07,0,0,0-5.29,21.12c-2.13,15.14-2.69,30.34-.26,45.6C2020.79,1023.15,2021.84,1029.93,2017.69,1036Z" transform="translate(-486.3 -479.5)"/><path class="cls-3" d="M514.86,1044.36c21.92,2.8,42.8-1.44,63.38-8.77,7.6-2.7,11-7.39,11.44-15.19,1.27-20,.87-39.89-2.5-59.55-2.67-15.63-6.62-31.07-10.58-46.45-1.46-5.68-4.56-10.94-6.91-16.39,11.39.55,17.44,8.07,20.64,17.57a347.16,347.16,0,0,1,10.91,39.36c4.8,22.9,5.42,46.18,4.92,69.55-.24,10.77-4.29,17.27-14.81,20.43-20.2,6.06-40.38,12-61.65,6.78C524.47,1050.41,519.79,1046.87,514.86,1044.36Z" transform="translate(-486.3 -479.5)"/><path class="cls-3" d="M1995.26,948.34q1.23,15.39,2.45,30.77c-.84,4.53-1.67,9.07-2.52,13.6-2.75,14.81-10.15,27.29-19.51,38.77-8.75,5.8-17.17,12.16-26.32,17.23a33,33,0,0,1-29.56,1.46c-3.23-1.35-6-3.77-9-5.7,27,.72,55.24-19.45,64.66-47.62,11.13-33.28,4.43-64.18-15-92.75-1.49-2.18-3.18-4.22-4.77-6.33,5.92-.58,9.89,3,13.86,6.56,10.23,9.06,15.81,21,20.72,33.38C1991.67,941.35,1993.57,944.8,1995.26,948.34Z" transform="translate(-486.3 -479.5)"/><path class="cls-3" d="M625.44,1041.41c3.6-3,2.67-7.17,2.84-11.06,1.13-26.2,2.38-52.46,9.83-77.76,3.53-12,8.95-23.44,13.89-35,3.75-8.73,11.77-13.26,19.48-17.82,1.5-.89,4.06-1.35,5.52-.67,4.66,2.14,9,4.91,13.49,7.43-12.55,5.36-21,14.49-26.67,26.92A193.38,193.38,0,0,0,648.18,991c-1.92,16.15-2.75,32.44-3.87,48.69-.53,7.67-2.21,10.1-8.59,11C630,1051.46,628,1049.66,625.44,1041.41Z" transform="translate(-486.3 -479.5)"/><path class="cls-3" d="M2017.69,1036c4.15-6,3.1-12.82,2.08-19.28-2.43-15.26-1.87-30.46.26-45.6a118.07,118.07,0,0,1,5.29-21.12c5.42-16,29-24.86,43.15-16,5.64,3.54,11.73,6.51,19.19,2.91,1.45-5.46,2.87-11.15-.55-16.83,12.89,1.21,20.21,9.14,18.12,19.61-1.12,5.64-4.28,8.29-9.85,7.07-4.15-.9-8.14-2.81-12-4.64a31.38,31.38,0,0,0-41.85,15.56c-6,13.39-6.32,27.79-7,42-.43,8.55,1,17.19,1.51,25.79.17,2.65.35,5.32.31,8-.1,7.74-2.46,11.16-7.91,11.74C2023.15,1045.75,2020.05,1043.08,2017.69,1036Z" transform="translate(-486.3 -479.5)"/><path class="cls-3" d="M722.73,1042c1.29-3.27,3.68-6.52,3.7-9.79.19-26.85.33-53.71-.38-80.54-.25-9.51-2.47-19-4.57-28.4-2.66-11.83-8.53-22.19-16.63-31.25,11.54,1,18,9,23.64,17.68,8.67,13.4,11.82,28.71,13.32,44.33,1.17,12.2,1.77,24.44,2.62,36.67-.57,15.58-1.2,31.16-1.69,46.74-.34,10.74-3.79,14-16.27,14.12C725.3,1048.56,724,1045.27,722.73,1042Z" transform="translate(-486.3 -479.5)"/><path class="cls-3" d="M2188.22,979.45a31.94,31.94,0,0,1-.35,5.89,33,33,0,0,1-2.33,5.47c-5.33-1.21-7.82-5.2-9.74-9.39-10.54-23-25.8-43.13-38.71-64.69-3.21-5.35-5.8-11.07-8.68-16.61,7.91-.54,12.75,3.37,16.78,10C2159.29,933.39,2173.84,956.37,2188.22,979.45Z" transform="translate(-486.3 -479.5)"/><path class="cls-3" d="M512.44,918.7c9-3,17.8-6.42,26.91-8.83,7.24-1.91,13.56.25,17.19,7.55-10.33,3.21-20.62,6.54-31,9.6C517.4,929.43,513.33,929.3,512.44,918.7Z" transform="translate(-486.3 -479.5)"/><path class="cls-3" d="M632.7,908.27a21.23,21.23,0,0,1-1.81,3.24,27.45,27.45,0,0,1-3.24,2.83l-3-6.13Z" transform="translate(-486.3 -479.5)"/><path class="cls-4" d="M1861.35,1048.72c-.83,5.24-1.26,10.59-2.6,15.7s-.34,8.69,3,12.74c14.4,17.18,22.08,37,22,59.61a56.79,56.79,0,0,1-1,9.91c-2.94,16-4.61,32.42-9.31,47.9-11.91,39.29-34.79,68.78-77.23,78.18a77.63,77.63,0,0,1-37.61-1c-4.57-1.25-8.17-.81-12.14,1.79-22.29,14.58-44.92,28.63-67,43.48-15.28,10.27-31.59,17.4-50,18.54a84.18,84.18,0,0,1-47.1-10.76c-5.77-3.24-10.07-3.17-15.54.34-18.22,11.68-36.94,22.59-55,34.43-26.93,17.6-55.31,22-85.67,10.77a82.07,82.07,0,0,1-36.58-26.85c-2.46-3.13-4.9-6.28-8.1-10.38-3.46,1.66-7.18,2.88-10.27,5-12.06,8.33-24.1,16.71-35.8,25.52-19.22,14.49-40.2,23.18-64.74,22.33-40.18-1.38-76.8-34.2-83-73.86-2-12.86-1-25.14,2-37.54.59-2.48.92-5,1.7-9.37-31.27,11-60.62,10.57-87.85-7.57s-38.14-45-39.87-77.93c-30.44,18.46-61.12,22.51-92.28,6.76-30.73-15.55-45.82-42.3-49.53-77.51-4.94,2.09-8.49,3.51-12,5.07-12.16,5.43-24.33,10.42-37.71,12.71-32,5.49-70.6-11.53-88.81-41.9-16.83-28.08-18.63-57.24-5.44-87A512.7,512.7,0,0,1,842.2,891c4.9-6.31,9.38-13,14.86-18.8,4.59-4.83,4.82-9.19,3-15.28-8.33-27.18-4.24-52.85,11.79-76.17a86.76,86.76,0,0,1,18.48-19.48q52-39.74,104.72-78.48c16.5-12.15,34.34-21.35,55.45-23.38,24-2.31,45.5,3.62,65.08,17.12C1132.09,688,1142.37,704,1148.32,723c.67,2.12,1.76,4.1,3.11,7.18,6.63-5.62,12.68-10.67,18.64-15.81,15.9-13.69,32-27.16,47.57-41.2,18.56-16.72,36.67-33.93,55-50.93,11.87-11,25.11-19.65,40.75-24.47A89.29,89.29,0,0,1,1409,626.46c6.06,7.39,6.06,7.39,14.25,1.54,32.58-23.29,73.4-24.46,104.63-1.88,24.64,17.82,38.43,42.09,38.46,73.1,0,8.91-.92,17.82-1.45,27.28,4.23-.66,6.18-4.36,8.21-7.32,12-17.56,24.22-35.07,35.64-53,14.51-22.85,34.23-38.11,61-43,46-8.44,84.7,17.66,99.27,54.56,11.66,29.53,7.74,57.68-9.4,83.83-14.52,22.16-25,46.25-36,70.15-.65,1.41-.69,3.09-1.2,5.5,25.9,3.52,47.29,14.46,63.31,34.87-.2,6.92.24,14-.79,20.75-1.14,7.48-3,8.36-10.66,9.09-7.9.75-15.87,1.21-23.66,2.6-11.68,2.08-13.19,5.07-10.09,16.4,1.3,4.75,3.66,7.61,9,7.27a60.08,60.08,0,0,1,6.95.32c.76,5.94,4.29,8.11,10,7.63,4.16-.35,8.34-.37,12.52-.54q-.72,9.87-1.44,19.74c-1.39,18.58-1.42,37.15,2.93,55.36,3.78,15.84,12.27,27.82,29.54,31.17,2,1.61,3.82,4.11,6.1,4.67C1831,1050.17,1845.9,1055.38,1861.35,1048.72ZM1702.15,912l-1.17-1.41c-11.4-8-24.27-10.41-37.86-9.87-6,.24-11.95.72-17.92,1.17a38.69,38.69,0,0,0-24.1,10.94c-11.25,10.7-16.94,23.88-13.74,39.61,2.77,13.61,12,21,25.27,23.66,7,7.83,16.13,8.37,25.62,6.95,13.11-2,26.19-4.25,39.46-1.3,7.29,5,9.88,9.8,6.88,17.28-2.25,5.61-5.71,11.63-10.36,15.21-12.64,9.73-26.66,12.87-41.71,4.51a56.88,56.88,0,0,0-12.85-5.21c-4-1.06-8.21-1-12.15-1.38-2.43,11.61,0,17.53,9.25,22.44,4,2.15,8.49,3.49,12.75,5.2,7.79,7.39,18.13,7.67,27.74,9.93,18.53,4.36,34.16-1.68,47.91-13.8,16.47-14.52,20.69-35.21,11.61-55.38-4.22-9.37-10.46-16.18-21.15-17.78-5.56-2.78-10.87-6.73-16.76-8.06a132.3,132.3,0,0,0-26.6-2.73c-9.92-.15-19.85.87-29.78,1.38,3.08-14.26,12.61-22.17,26.09-25.62,5.39-1.38,11.12-1.38,16.69-2,2.28,1.86,4.88,3.45,6.75,5.65,2.91,3.42,6.38,4.33,10.54,3.73a64.87,64.87,0,0,1,5.37,4.38c2.46,2.44,4.73,4.57,8.67,2.88s5.21-4.69,5.42-8.68c.57-11-6.45-18.63-20.17-21.75ZM1124,878.17c8.75,8.91,12.84,9.81,21.46,4.72,10.54-6.22,14-14,11-23.78-2.5-8.18-9-9.87-16.25-10.45-6-8.55-15.08-9-24-7.88-3.32.43-7.43,3.59-9.07,6.64C1099.16,862.29,1107,876.13,1124,878.17Zm175-.19c5.09,8.49,13.41,10.16,23.87,4.78,8.54-4.39,11.75-11.5,9.78-21.67-1.82-9.44-3.1-10.42-15.24-11.69-.33,0-.65-.08-1-.12-4.67-12-10.67-16-20.6-14-11.84,2.43-16.64,10-15.75,24.85C1280.78,872.63,1285.47,877.05,1299,878Zm-156.74,165.09a11.65,11.65,0,0,1,1.1,1.63c2.24,4.92,5.29,8.39,11.42,6.92s7.39-3.38,7.76-11.65c.47-10.53.87-21.07,1.3-31.6.72,1.81,1.82,3.56,2.11,5.44,1.82,11.61,6.53,20.17,20,20,2,2,3.69,5.27,6,5.7a81.85,81.85,0,0,0,18.74,1.44c13.18-.59,24.06-6.85,33.93-15.15a116.6,116.6,0,0,1-4.83,58c-6.47,19-18,34.33-37.06,42.15-17,7-34.48,9.78-52.12,1.61.33-2.61.19-5.4,1.07-7.8,1.83-5,2.7-9.88-1-14.06-4-4.49-8.62-.71-13,0-.63-4.37-1.22-8.82-6.82-9.64-4.41-.65-11.13,2.66-12.36,6.65-3.94,12.75-3.76,25,5.63,35.69,5.3,6,12.64,8.38,20,10.52,4.57,2.45,8.9,5.77,13.77,7.18,18.3,5.3,36.87,4.57,55.4,1.09a69.41,69.41,0,0,0,45.16-28.85c12.76-18,21-37.75,20.84-60.31a58.87,58.87,0,0,1,.87-10.94c3.65-19.55,2.74-39.06.2-58.65-2.4-18.47-4.19-37-6.41-55.52a75,75,0,0,0-2.79-14.66c-3.36-10.21-10-17.09-21.25-18.55-11.52-10.26-25.86-12.71-40-10.93-13.92,1.75-27.06,7.55-32.11,22.93-3.5,10.68-7.6,21.31-9.63,32.29-2.57,13.92-3.32,28.18-4.86,42.25q-2.64-25.59-5.3-51.16c-.47-4.58-.57-9.26-1.7-13.68-2.92-11.44-4-12-15.93-9.76a16,16,0,0,1-.69-1.86c-1.27-5.41-4.64-7.61-10.16-7.12-6,.54-6.15,5.14-6.69,9.37a54.4,54.4,0,0,0-.4,8.93c1.31,33.38,2.56,66.76,4.11,100.12C1127,1041.29,1131.67,1044.51,1142.21,1043.07Zm174-121.53c-.5-1.23-1-2.44-1.49-3.68-1.82-5.19-5.89-5.75-10.5-5.05s-5.28,4.45-5.63,8.16a66.63,66.63,0,0,0-.37,8.93c1.31,34.06,2.54,68.12,4.13,102.17.43,9.36,5.35,12.43,15.59,11,.5.86,1,1.76,1.51,2.58,4.32,6.39,6.5,7.29,12.11,5.67s6.86-5.33,6.64-10.63c-.24-6,.14-12,.39-18,.26-6.24.7-12.47,1.06-18.71.76,3.38,1.94,6.74,2.18,10.16.39,5.6-.37,11.3.32,16.83,1.42,11.27,4.85,13.24,16,10.2,3.23,9,4.92,10.35,11.38,9.19s7.73-3.3,8.17-12.31c.65-13.28,1.14-26.61,2.55-39.82,2.3-21.57,6.72-42.65,15.5-62.71,5.72-13.06,14.1-23.19,27.34-29,7.84,6.14,10.17,15.27,12.68,24.14,7.8,27.54,6.81,55.78,6.19,84,0,2.28-1.17,4.55-1.19,6.83-.07,5.25-.46,10.65.56,15.73,1.38,6.84,3.86,7.81,10.85,5.9a24.29,24.29,0,0,0,3.62-1.62q1,3.33,2.08,6.65c1.13,3.61,3.86,4.21,7.11,3.71,6.16-.95,10.84-5.84,10.86-12,.09-25.21.54-50.43-.19-75.62-.47-16.25-3.1-32.41-10.23-47.34-6.05-12.68-14.59-22.9-29-26.62-8.5-6-17.79-10.82-28.23-11.06-13.55-.32-26.35,2.44-34.17,15.47-2.72,4.52-5.48,9-8.22,13.53l-7.9-.06c-1.25-1.54-2.47-3.1-3.75-4.61-3.17-3.74-7.22-4.43-11.74-3.22-5,1.33-5.65,5.52-5.49,9.49.68,17.23.9,34.55,2.84,51.65a173,173,0,0,1,0,42.54c-.4-.5-1.12-1-1.16-1.51-1.59-20.11-3.07-40.22-4.68-60.32a57.62,57.62,0,0,0-1.72-10.71C1329,919.88,1328.18,919.48,1316.23,921.54Zm-295.34,115.07a18.29,18.29,0,0,0,1,2.8c2.63,4.57,6.74,6.42,11.46,5.31s6.25-4.68,6.4-8.92a62.31,62.31,0,0,0-.54-10.92,162,162,0,0,1,.84-50.6,87.12,87.12,0,0,1,5.87-18.9c3.48-8.18,10.56-12.73,18.82-15.08,8-2.28,15.86-3.5,23.61,2.21,5.3,3.9,11.81,6.17,18.48,2.39,3.62-16.16-1.07-23.12-16.43-24.7-3.11-2.38-5.9-5.87-9.41-6.9a115.65,115.65,0,0,0-23.44-4.47c-9-.67-18.26.63-25.95,5.6-6.92,4.47-12.06,4.7-18.63-.82-5.78-4.86-12.44-1.35-13.12,6.26-.89,9.92-1.26,19.88-1.85,29.82-1.39-3.69-2.82-7.36-4.16-11.06-4.34-11.94-9.83-23.26-19-32.28-4.36-4.3-8.61-9.51-16-8.44-4.43-2.84-8.52-7.18-13.34-8.26-15.59-3.49-30.24-1.81-42.41,10.45-11.4,11.48-18.16,25.28-22.28,40.58-6.43,23.84-8.25,47.84-.38,71.7,5.46,16.52,16.19,28,33.73,32.12,10.15,9.2,22.06,10.65,34.2,5.93,21.2-8.24,37.87-22.07,45.63-44.08,3.46-9.83,4.45-20.54,6.57-30.85,1.27,9.82,2.8,19.62,3.73,29.47.59,6.27-.09,12.65.47,18.92C1005.91,1035.84,1008.68,1037.85,1020.89,1036.61Z" transform="translate(-486.3 -479.5)"/><path class="cls-2" d="M1756.37,928.46a60.08,60.08,0,0,0-6.95-.32c-5.33.34-7.69-2.52-9-7.27-3.1-11.33-1.59-14.32,10.09-16.4,7.79-1.39,15.76-1.85,23.66-2.6,7.69-.73,9.52-1.61,10.66-9.09,1-6.8.59-13.83.79-20.75.13-3.29-.35-6.77.59-9.81a11.56,11.56,0,0,1,5-6.42c5.93-3.06,15.25.71,19,7-.06,12.72-2.46,25.48.12,39.1h15c4.33.06,8.66.09,13,.21,7.36.2,7.36.22,9.87,8.25-1,12.15-1,12.27-13.21,14.19a122.9,122.9,0,0,1-14.85,1.25c-10.3.32-11.19,0-13.36,10.35-3.13,14.86-5.22,30-7,45.06a48.55,48.55,0,0,0,4.27,26.24c3.85,8.29,9.66,14.19,19.52,14.52,8.12.12,16.25.46,24.37.29,5.66-.12,8.77,1.9,8.71,7.81-10,12.41-22.53,16.48-37.93,12.24-2.78-.76-5.89-.38-8.85-.53-17.27-3.35-25.76-15.33-29.54-31.17-4.35-18.21-4.32-36.78-2.93-55.36q.74-9.87,1.44-19.74c-.22-2.75-.45-5.5-.72-8.83Z" transform="translate(-486.3 -479.5)"/><path class="cls-3" d="M1823.65,1022c-9.86-.33-15.67-6.23-19.52-14.52a48.55,48.55,0,0,1-4.27-26.24c1.75-15.09,3.84-30.2,7-45.06,2.17-10.32,3.06-10,13.36-10.35a122.9,122.9,0,0,0,14.85-1.25c12.21-1.92,12.19-2,13.21-14.19a29.46,29.46,0,0,1,4-.18c3.46.27,8.35-1.78,9.73,2.56,1.43,4.5,1.42,9.69.87,14.45-.19,1.65-3.72,3.76-6,4.17a159.41,159.41,0,0,1-20.65,2.48c-10.31.53-10.67.19-13.49,10.44-1.91,7-2.69,14.27-4,21.43C1814.37,985,1813.09,1004,1823.65,1022Z" transform="translate(-486.3 -479.5)"/><path class="cls-4" d="M1823.65,1022c-10.56-18-9.28-37-5-56.26,24.17,14.67,38.47,35.8,41.89,64l-3.86.32c.06-5.91-3-7.93-8.71-7.81C1839.9,1022.47,1831.77,1022.13,1823.65,1022Z" transform="translate(-486.3 -479.5)"/><path class="cls-3" d="M1856.73,1030.11l3.86-.32,9.6,1c3.32,4.07,2.88,7.41-.79,10.56-2.76,2.37-5.38,4.91-8.05,7.38-15.45,6.66-30.38,1.45-45.3-2.23-2.28-.56-4.08-3.06-6.1-4.67,3,.15,6.07-.23,8.85.53C1834.2,1046.59,1846.77,1042.52,1856.73,1030.11Z" transform="translate(-486.3 -479.5)"/><path class="cls-3" d="M1825.4,901.94h-15c-2.58-13.62-.18-26.38-.12-39.1,15.82,2.39,15.83,2.39,15.56,18.43C1825.73,888.16,1825.55,895.05,1825.4,901.94Z" transform="translate(-486.3 -479.5)"/><path class="cls-3" d="M555.38,1001.83a38.69,38.69,0,0,0-21.57,5.47c-6.58,3.77-11,8.19-10.24,16.29-3.37-1.17-6.92-2-10.07-3.59-6.82-3.47-8.44-10-3.1-15.1C521.58,994.22,541,987.49,555.38,1001.83Z" transform="translate(-486.3 -479.5)"/><path class="cls-1" d="M1956.46,985.72c-3.52,19.81-20,37.35-40.71,38.13-2.5-5.32-6.24-10.4-7.29-16-4.48-23.85-.46-46.5,11.71-67.6,3.87,4.07,7.74,8.13,11.59,12.22C1941.3,962.59,1950.17,973.19,1956.46,985.72Z" transform="translate(-486.3 -479.5)"/><path class="cls-3" d="M1920.17,940.26c-12.17,21.1-16.19,43.75-11.71,67.6,1,5.59,4.79,10.67,7.29,16-11.42-.82-18.15-8.42-21.28-17.91-2.83-8.63-3.68-18.29-3.5-27.45a92.9,92.9,0,0,1,12.65-45.72c3.47-5.91,7.7-12.19,13.2-15.92,10.76-7.31,14.46-10.37,27.49,2.2C1933.45,922.92,1924.75,929.24,1920.17,940.26Z" transform="translate(-486.3 -479.5)"/><path class="cls-2" d="M1185.94,1033.82c-13.51.16-18.22-8.4-20-20-.29-1.88-1.39-3.63-2.11-5.42q-.24-6.06-.49-12.15c1.54-14.11,2.29-28.37,4.86-42.29,2-11,6.13-21.61,9.63-32.29,5-15.38,18.19-21.18,32.11-22.93,14.16-1.78,28.5.67,40,10.94,6,9.53,7.82,20.09,8.72,31.16,1.26,15.55,4,31,5.16,46.54,1.27,16.86,1.82,33.8,2,50.71,0,7.57-2.45,15.16-2.45,22.73,0,20.77-7.32,39.1-18.34,56-12,18.49-29.31,29.51-51.25,33a135.93,135.93,0,0,1-49.58-.92c-7.4-2.14-14.74-4.5-20-10.52-9.39-10.66-9.57-22.94-5.63-35.69,1.23-4,8-7.3,12.36-6.65,5.6.82,6.19,5.27,6.82,9.64-5,14.88-5,14.9,9.17,21.11a18.27,18.27,0,0,0,3.74.79c17.64,8.17,35.17,5.34,52.12-1.61,19.06-7.82,30.59-23.12,37.06-42.15a116.45,116.45,0,0,0,4.82-58c.32-6.87-.07-13.62-4.21-21.34-2.78,2.74-5.16,4.63-7,7-8.45,10.82-19.06,18.17-32.72,20.59C1195.79,1032.88,1190.84,1033.24,1185.94,1033.82Zm42.45-108.11c-8.55-9.79-14.29-10.38-24.65-3.69-6.93,4.47-10.66,10.87-13.15,18.23-7.18,21.23-8.24,43.11-6.15,65.19,1,10,7,12.22,15.9,6.49,11-3.15,17.83-10.94,22.78-20.62,9.14-17.84,11.54-37,10.44-56.75C1233.34,930.73,1232.23,927.42,1228.39,925.71Z" transform="translate(-486.3 -479.5)"/><path class="cls-2" d="M1358.13,1041.16c-11.11,3-14.54,1.07-16-10.2-.69-5.53.07-11.23-.32-16.83-.24-3.42-1.42-6.78-2.18-10.16l.06,0a173,173,0,0,0,0-42.54c-1.94-17.1-2.16-34.42-2.84-51.65-.16-4,.54-8.16,5.49-9.49,4.52-1.21,8.57-.52,11.74,3.22,1.28,1.51,2.5,3.07,3.76,4.61l3,7,4.88-6.89c2.74-4.51,5.5-9,8.22-13.53,7.82-13,20.62-15.79,34.17-15.47,10.44.24,19.73,5,28.23,11.06a72.53,72.53,0,0,1,18.84,35.55c2.12,10.36,4.11,20.93,4.38,31.46.64,24.87.1,49.76.34,74.64,0,4.15-1.66,6.88-4.21,9.55a24.29,24.29,0,0,1-3.62,1.62c-7,1.91-9.47.94-10.85-5.9-1-5.08-.63-10.48-.56-15.73,0-2.28,1.14-4.55,1.19-6.83.62-28.18,1.61-56.42-6.19-84-2.51-8.87-4.84-18-12.68-24.12-6.63-6.93-13.74-9.61-18.93-6.63-8.15,4.68-16.12,9.9-19.83,19-5.12,12.59-10.63,25.15-14.2,38.21-6.54,23.89-8,48.55-8.53,73.25C1361.5,1034.3,1362.46,1038.59,1358.13,1041.16Z" transform="translate(-486.3 -479.5)"/><path class="cls-2" d="M1632.63,976.09c-13.28-2.7-22.5-10.05-25.27-23.66-3.2-15.73,2.49-28.91,13.74-39.61a38.69,38.69,0,0,1,24.1-10.94c6-.45,11.94-.93,17.92-1.17,13.59-.54,26.46,1.87,37.85,9.87a5.68,5.68,0,0,0,1.18,1.41l-.3,0c4,7.61,6.61,15.26.71,23.17-4.16.6-7.63-.31-10.54-3.73-1.87-2.2-4.47-3.79-6.75-5.65-12.11-11.09-25.86-9-39.21-3.75-11.42,4.52-18.74,13.19-19.73,25.9,4.85,4.89,10.67,4.67,16.16,5.47,9.93-.51,19.86-1.53,29.78-1.38a132.3,132.3,0,0,1,26.6,2.73c5.89,1.33,11.2,5.28,16.77,8.06.89,1.77,1.77,3.55,2.69,5.31,8.59,16.42,11,33.37,0,49.21-11.84,17.06-28.15,27.27-50.06,25.15-6.28-.61-12.51-1.75-18.77-2.64-4.26-1.71-8.72-3-12.75-5.2-9.2-4.91-11.68-10.83-9.25-22.44,3.94.4,8.2.32,12.15,1.38a56.88,56.88,0,0,1,12.85,5.21c15,8.36,29.07,5.22,41.71-4.51,4.65-3.58,8.11-9.6,10.36-15.21,3-7.48.41-12.3-6.88-17.28-11.84-8.77-25.27-10.75-39.49-9.07C1649.68,973.68,1641.16,974.94,1632.63,976.09Z" transform="translate(-486.3 -479.5)"/><path class="cls-2" d="M914.25,1044.5c-17.54-4.09-28.27-15.6-33.73-32.12-7.87-23.86-6-47.86.38-71.7,4.12-15.3,10.88-29.1,22.28-40.58,12.17-12.26,26.82-13.94,42.41-10.45,4.82,1.08,8.91,5.42,13.34,8.26,1.62,2.1,3.38,4.11,4.86,6.3,20,29.55,26.51,61.09,14.07,95.43C969,1024.2,936,1048.44,914.25,1044.5Zm4.73-20.58c14.45-.61,24.95-8,32.92-19.45a74.1,74.1,0,0,0,13.39-37c1.37-18.49-2.81-35.53-17.94-48.17-8.2-9.26-13-10.3-23.09-5.24-6.81,3.4-11.64,8.84-15.43,15.2a102.19,102.19,0,0,0-14.67,57.18,62,62,0,0,0,3.9,20.39C901.72,1015.89,908.14,1023,919,1023.92Z" transform="translate(-486.3 -479.5)"/><path class="cls-3" d="M1144.13,1148.87a135.93,135.93,0,0,0,49.58.92c21.94-3.44,39.21-14.46,51.25-33,11-16.93,18.31-35.26,18.34-56,0-7.57,2.5-15.16,2.45-22.73-.13-16.91-.68-33.85-2-50.71-1.16-15.56-3.9-31-5.16-46.54-.9-11.07-2.75-21.63-8.72-31.16,11.21,1.45,17.89,8.33,21.25,18.54a75,75,0,0,1,2.79,14.66c2.22,18.5,4,37,6.41,55.52,2.54,19.59,3.45,39.1-.2,58.65a58.87,58.87,0,0,0-.87,10.94c.11,22.56-8.08,42.33-20.84,60.31a69.41,69.41,0,0,1-45.16,28.85c-18.53,3.48-37.1,4.21-55.4-1.09C1153,1154.64,1148.7,1151.32,1144.13,1148.87Z" transform="translate(-486.3 -479.5)"/><path class="cls-2" d="M998,949.69c.59-9.94,1-19.9,1.85-29.82.68-7.61,7.34-11.12,13.12-6.26,6.57,5.52,11.71,5.29,18.63.82,7.69-5,16.94-6.27,25.95-5.6A115.65,115.65,0,0,1,1081,913.3c3.51,1,6.3,4.52,9.41,6.9,3.17,5.71,2.06,11.38.54,16.53-7.68,4.22-13.62,1-19.25-2.69-13.76-8.94-36.94.1-42.37,14.35a97.7,97.7,0,0,0-5.31,18.1,162.69,162.69,0,0,0-.66,51.74c.95,6.37,1.1,12.63-2.49,18.38-12.21,1.24-15-.77-16-12.72-.56-6.27.12-12.65-.47-18.92-.93-9.85-2.46-19.65-3.73-29.46Q999.35,962.6,998,949.69Z" transform="translate(-486.3 -479.5)"/><path class="cls-3" d="M998,949.69q1.31,12.9,2.62,25.82c-2.12,10.3-3.11,21-6.57,30.84-7.76,22-24.43,35.84-45.63,44.08-12.14,4.72-24.05,3.27-34.2-5.93,21.77,3.94,54.72-20.3,63.61-44.86,12.44-34.34,5.89-65.88-14.07-95.43-1.48-2.19-3.24-4.2-4.86-6.3,7.36-1.07,11.61,4.14,16,8.44,9.14,9,14.63,20.34,19,32.28C995.21,942.33,996.64,946,998,949.69Z" transform="translate(-486.3 -479.5)"/><path class="cls-3" d="M1358.13,1041.16c4.33-2.57,3.37-6.86,3.45-10.75.48-24.7,2-49.36,8.53-73.25,3.57-13.06,9.08-25.62,14.2-38.21,3.71-9.11,11.68-14.33,19.83-19,5.19-3,12.3-.3,18.93,6.63-13.24,5.75-21.62,15.88-27.34,28.94-8.78,20.06-13.2,41.14-15.5,62.71-1.41,13.21-1.9,26.54-2.55,39.82-.44,9-1.63,11.13-8.17,12.31S1361.36,1050.14,1358.13,1041.16Z" transform="translate(-486.3 -479.5)"/><path class="cls-3" d="M1020.89,1036.61c3.59-5.75,3.44-12,2.49-18.38a162.69,162.69,0,0,1,.66-51.74,97.7,97.7,0,0,1,5.31-18.1c5.43-14.25,28.61-23.29,42.37-14.35,5.63,3.65,11.57,6.91,19.25,2.69,1.52-5.15,2.63-10.82-.54-16.53,15.36,1.58,20,8.54,16.43,24.7-6.67,3.78-13.18,1.51-18.48-2.39-7.75-5.71-15.6-4.49-23.61-2.21-8.26,2.35-15.34,6.9-18.82,15.08a87.12,87.12,0,0,0-5.87,18.9,162,162,0,0,0-.84,50.6,62.31,62.31,0,0,1,.54,10.92c-.15,4.24-1.64,7.81-6.4,8.92s-8.83-.74-11.46-5.31A18.29,18.29,0,0,1,1020.89,1036.61Z" transform="translate(-486.3 -479.5)"/><path class="cls-2" d="M1318,1043c-10.24,1.46-15.16-1.61-15.59-11-1.59-34-2.82-68.11-4.13-102.17a66.63,66.63,0,0,1,.37-8.93c.35-3.71.91-7.46,5.63-8.16s8.68-.14,10.5,5.05c.44,1.24,1,2.45,1.49,3.67.52,6.57,1.11,13.14,1.54,19.73.3,4.63-.21,9.4.67,13.91,5.09,26.35,4.39,52.92,3.77,79.52C1322.12,1038.42,1320.91,1041,1318,1043Z" transform="translate(-486.3 -479.5)"/><path class="cls-2" d="M1142.21,1043.07c-10.54,1.44-15.19-1.78-15.67-12-1.55-33.36-2.8-66.74-4.11-100.12a54.4,54.4,0,0,1,.4-8.93c.54-4.23.65-8.83,6.69-9.37,5.52-.49,8.89,1.71,10.16,7.12a14.44,14.44,0,0,0,.7,1.86c.53,5.9,1.19,11.79,1.56,17.71.32,5-.37,10.08.55,14.9,5.09,26.66,4.92,53.51,3.92,80.45C1146.28,1038.35,1145.17,1041,1142.21,1043.07Z" transform="translate(-486.3 -479.5)"/><path class="cls-3" d="M1455.78,1041.49c2.55-2.67,4.25-5.4,4.21-9.55-.24-24.88.3-49.77-.34-74.64-.27-10.53-2.26-21.1-4.38-31.46a72.53,72.53,0,0,0-18.84-35.55c14.39,3.72,22.93,13.94,29,26.62,7.13,14.93,9.76,31.09,10.23,47.34.73,25.19.28,50.41.19,75.62,0,6.14-4.7,11-10.86,12-3.25.5-6-.1-7.11-3.71Q1456.83,1044.83,1455.78,1041.49Z" transform="translate(-486.3 -479.5)"/><path class="cls-3" d="M1142.21,1043.07c3-2,4.07-4.72,4.2-8.41,1-26.94,1.17-53.79-3.92-80.45-.92-4.82-.23-9.94-.55-14.9-.37-5.92-1-11.81-1.56-17.71,11.89-2.2,13-1.68,15.92,9.76,1.13,4.42,1.23,9.1,1.7,13.68q2.68,25.58,5.3,51.18.26,6.12.49,12.17c-.43,10.51-.83,21.05-1.3,31.58-.37,8.27-1.74,10.21-7.76,11.65s-9.18-2-11.42-6.92A11.65,11.65,0,0,0,1142.21,1043.07Z" transform="translate(-486.3 -479.5)"/><path class="cls-3" d="M1318,1043c3-2,4.16-4.62,4.25-8.35.62-26.6,1.32-53.17-3.77-79.52-.88-4.51-.37-9.28-.67-13.91-.43-6.59-1-13.16-1.54-19.73,12-2,12.75-1.65,15.94,10a57.62,57.62,0,0,1,1.72,10.71c1.61,20.1,3.09,40.21,4.68,60.32,0,.53.76,1,1.16,1.51l-.06,0c-.36,6.24-.8,12.47-1.06,18.71-.25,6-.63,12-.39,18,.22,5.3-1.11,9-6.64,10.63s-7.79.72-12.11-5.67C1318.92,1044.8,1318.46,1043.9,1318,1043Z" transform="translate(-486.3 -479.5)"/><path class="cls-3" d="M1649.52,1039.79c6.26.89,12.49,2,18.77,2.64,21.91,2.12,38.22-8.09,50.06-25.15,11-15.84,8.57-32.79,0-49.21-.92-1.76-1.8-3.54-2.69-5.31,10.68,1.6,16.92,8.41,21.14,17.78,9.08,20.17,4.86,40.86-11.61,55.38-13.75,12.12-29.38,18.16-47.91,13.8C1667.65,1047.46,1657.31,1047.18,1649.52,1039.79Z" transform="translate(-486.3 -479.5)"/><path class="cls-2" d="M1299,878c-13.48-.93-18.17-5.35-18.92-17.85-.89-14.84,3.91-22.42,15.75-24.85,9.93-2,15.93,2,20.6,14,.07,1.3.07,2.61.21,3.91,1.49,13.23-1.5,18.23-14,23.34Z" transform="translate(-486.3 -479.5)"/><path class="cls-2" d="M1124,878.17c-17-2-24.82-15.88-16.84-30.75,1.64-3,5.75-6.21,9.07-6.64,8.92-1.14,18-.67,24,7.88,2.46,15.71.63,19.42-13.72,27.92C1125.64,877.08,1124.82,877.64,1124,878.17Z" transform="translate(-486.3 -479.5)"/><path class="cls-3" d="M1185.94,1033.82c4.9-.58,9.85-.94,14.7-1.79,13.66-2.42,24.27-9.77,32.72-20.59,1.82-2.33,4.2-4.22,7-7,4.14,7.72,4.53,14.47,4.21,21.34-9.86,8.29-20.74,14.55-33.92,15.14a81.85,81.85,0,0,1-18.74-1.44C1189.63,1039.09,1187.9,1035.81,1185.94,1033.82Z" transform="translate(-486.3 -479.5)"/><path class="cls-3" d="M1642.49,953.35c-5.49-.8-11.31-.58-16.16-5.47,1-12.71,8.31-21.38,19.73-25.9,13.35-5.28,27.1-7.34,39.21,3.75-5.57.62-11.3.62-16.69,2C1655.1,931.18,1645.57,939.09,1642.49,953.35Z" transform="translate(-486.3 -479.5)"/><path class="cls-3" d="M1299,878l3.65-1.46c12.49-5.11,15.48-10.11,14-23.34-.14-1.3-.14-2.61-.21-3.91.33.05.65.1,1,.13,12.14,1.27,13.42,2.25,15.24,11.69,2,10.17-1.24,17.28-9.78,21.67C1312.36,888.14,1304,886.47,1299,878Z" transform="translate(-486.3 -479.5)"/><path class="cls-3" d="M1124,878.17c.84-.53,1.66-1.09,2.51-1.59,14.35-8.5,16.18-12.21,13.72-27.92,7.29.58,13.75,2.27,16.25,10.45,3,9.82-.48,17.56-11,23.78C1136.82,888,1132.73,887.08,1124,878.17Z" transform="translate(-486.3 -479.5)"/><path class="cls-3" d="M1632.63,976.09c8.53-1.15,17-2.41,25.59-3.42,14.22-1.68,27.65.3,39.49,9.07-13.27-3-26.35-.67-39.46,1.3C1648.76,984.46,1639.68,983.92,1632.63,976.09Z" transform="translate(-486.3 -479.5)"/><path class="cls-3" d="M1702.56,935.11c5.9-7.91,3.25-15.56-.71-23.17,13.72,3.12,20.74,10.76,20.17,21.75-.21,4-1.46,7-5.42,8.68s-6.21-.44-8.67-2.88A64.87,64.87,0,0,0,1702.56,935.11Z" transform="translate(-486.3 -479.5)"/><path class="cls-3" d="M1150.55,1127.55a18.27,18.27,0,0,1-3.74-.79c-14.15-6.21-14.14-6.23-9.17-21.11,4.34-.67,9-4.45,13,0,3.72,4.18,2.85,9.09,1,14.06C1150.74,1122.15,1150.88,1124.94,1150.55,1127.55Z" transform="translate(-486.3 -479.5)"/><path class="cls-3" d="M1756.37,928.46l21.83-1.74c.27,3.33.5,6.08.72,8.83-4.18.17-8.36.19-12.52.54C1760.66,936.57,1757.13,934.4,1756.37,928.46Z" transform="translate(-486.3 -479.5)"/><path class="cls-3" d="M1365.81,908.23l-4.88,6.89-3-7Z" transform="translate(-486.3 -479.5)"/><path class="cls-3" d="M1702.15,912a5.68,5.68,0,0,1-1.18-1.41Z" transform="translate(-486.3 -479.5)"/><path class="cls-4" d="M1228.39,925.71c3.84,1.71,4.95,5,5.17,8.85,1.1,19.76-1.3,38.91-10.44,56.75-4.95,9.68-11.82,17.47-22.78,20.62-1.91-22-.67-43.58,6.55-64.64C1210.58,936.51,1217.66,929.35,1228.39,925.71Z" transform="translate(-486.3 -479.5)"/><path class="cls-3" d="M1228.39,925.71c-10.73,3.64-17.81,10.8-21.5,21.58-7.22,21.06-8.46,42.68-6.55,64.64-8.9,5.73-14.95,3.51-15.9-6.49-2.09-22.08-1-44,6.15-65.19,2.49-7.36,6.22-13.76,13.15-18.23C1214.1,915.33,1219.84,915.92,1228.39,925.71Z" transform="translate(-486.3 -479.5)"/><path class="cls-4" d="M947.35,919.28c15.13,12.64,19.31,29.68,17.94,48.17a74.1,74.1,0,0,1-13.39,37c-8,11.45-18.47,18.84-32.92,19.45a46.28,46.28,0,0,1-8.55-23.1,106.31,106.31,0,0,1,13.17-61.53C929,929.61,936.35,922.29,947.35,919.28Z" transform="translate(-486.3 -479.5)"/><path class="cls-3" d="M947.35,919.28c-11,3-18.4,10.33-23.75,20a106.31,106.31,0,0,0-13.17,61.53,46.28,46.28,0,0,0,8.55,23.1c-10.84-1-17.26-8-20.92-17.11a62,62,0,0,1-3.9-20.39,102.19,102.19,0,0,1,14.67-57.18c3.79-6.36,8.62-11.8,15.43-15.2C934.39,909,939.15,910,947.35,919.28Z" transform="translate(-486.3 -479.5)"/></svg>