{
  "asset": {
    "generator": "Khronos glTF Blender I/O v1.4.40",
    "version": "2.0"
  },
  "scene": 0,
  "scenes": [
    {
      "name": "Scene",
      "nodes": [0]
    }
  ],
  "nodes": [
    {
      "mesh": 0,
      "name": "Sapling",
      "rotation": [
        0.19997228682041168,
        0.19244657456874847,
        -0.31248706579208374,
        0.9084752202033997
      ],
      "scale": [0.23430712521076202, 0.23430722951889038, 0.2343071848154068]
    }
  ],
  "materials": [
    {
      "doubleSided": true,
      "name": "0-Stem",
      "normalTexture": {
        "index": 0,
        "texCoord": 0
      },
      "pbrMetallicRoughness": {
        "baseColorTexture": {
          "index": 1,
          "texCoord": 0
        },
        "metallicFactor": 0,
        "roughnessFactor": 0.5
      }
    },
    {
      "alphaCutoff": 0.5,
      "alphaMode": "MASK",
      "doubleSided": true,
      "name": "2-Half",
      "normalTexture": {
        "index": 2,
        "texCoord": 0
      },
      "pbrMetallicRoughness": {
        "baseColorTexture": {
          "index": 3,
          "texCoord": 0
        },
        "metallicFactor": 0,
        "roughnessFactor": 0.5
      }
    },
    {
      "alphaCutoff": 0.5,
      "alphaMode": "MASK",
      "doubleSided": true,
      "name": "1-Full",
      "normalTexture": {
        "index": 4,
        "texCoord": 0
      },
      "pbrMetallicRoughness": {
        "baseColorTexture": {
          "index": 5,
          "texCoord": 0
        },
        "metallicFactor": 0,
        "roughnessFactor": 0.5
      }
    },
    {
      "alphaCutoff": 0.5,
      "alphaMode": "MASK",
      "doubleSided": true,
      "name": "3-None",
      "normalTexture": {
        "index": 6,
        "texCoord": 0
      },
      "pbrMetallicRoughness": {
        "baseColorTexture": {
          "index": 7,
          "texCoord": 0
        },
        "metallicFactor": 0,
        "roughnessFactor": 0.5
      }
    }
  ],
  "meshes": [
    {
      "name": "Sapling",
      "primitives": [
        {
          "attributes": {
            "POSITION": 0,
            "NORMAL": 1,
            "TEXCOORD_0": 2
          },
          "indices": 3,
          "material": 0
        },
        {
          "attributes": {
            "POSITION": 4,
            "NORMAL": 5,
            "TEXCOORD_0": 6
          },
          "indices": 7,
          "material": 1
        },
        {
          "attributes": {
            "POSITION": 8,
            "NORMAL": 9,
            "TEXCOORD_0": 10
          },
          "indices": 11,
          "material": 2
        },
        {
          "attributes": {
            "POSITION": 12,
            "NORMAL": 13,
            "TEXCOORD_0": 14
          },
          "indices": 15,
          "material": 3
        }
      ]
    }
  ],
  "textures": [
    {
      "sampler": 0,
      "source": 0
    },
    {
      "sampler": 0,
      "source": 0
    },
    {
      "sampler": 0,
      "source": 1
    },
    {
      "sampler": 0,
      "source": 1
    },
    {
      "sampler": 0,
      "source": 2
    },
    {
      "sampler": 0,
      "source": 2
    },
    {
      "sampler": 0,
      "source": 3
    },
    {
      "sampler": 0,
      "source": 3
    }
  ],
  "images": [
    {
      "bufferView": 4,
      "mimeType": "image/jpeg",
      "name": "whitepaper_1"
    },
    {
      "bufferView": 9,
      "mimeType": "image/png",
      "name": "paper-leaf-less-print_1"
    },
    {
      "bufferView": 14,
      "mimeType": "image/png",
      "name": "paper-leaf_1"
    },
    {
      "bufferView": 19,
      "mimeType": "image/png",
      "name": "paper-leaf-no-print_1"
    }
  ],
  "accessors": [
    {
      "bufferView": 0,
      "componentType": 5126,
      "count": 1655,
      "max": [0.06609463691711426, 2.7096471786499023, 0.06285721808671951],
      "min": [-2.044139862060547, -0.04183376207947731, -2.2394070625305176],
      "type": "VEC3"
    },
    {
      "bufferView": 1,
      "componentType": 5126,
      "count": 1655,
      "type": "VEC3"
    },
    {
      "bufferView": 2,
      "componentType": 5126,
      "count": 1655,
      "type": "VEC2"
    },
    {
      "bufferView": 3,
      "componentType": 5123,
      "count": 8109,
      "type": "SCALAR"
    },
    {
      "bufferView": 5,
      "componentType": 5126,
      "count": 177,
      "max": [0.18237650394439697, 3.299633741378784, 0.028412282466888428],
      "min": [-3.041510581970215, 0.8984053134918213, -3.175560235977173],
      "type": "VEC3"
    },
    {
      "bufferView": 6,
      "componentType": 5126,
      "count": 177,
      "type": "VEC3"
    },
    {
      "bufferView": 7,
      "componentType": 5126,
      "count": 177,
      "type": "VEC2"
    },
    {
      "bufferView": 8,
      "componentType": 5123,
      "count": 540,
      "type": "SCALAR"
    },
    {
      "bufferView": 10,
      "componentType": 5126,
      "count": 203,
      "max": [0.38478219509124756, 3.1325607299804688, 0.7725844383239746],
      "min": [-2.873896598815918, 0.05176961421966553, -2.7548248767852783],
      "type": "VEC3"
    },
    {
      "bufferView": 11,
      "componentType": 5126,
      "count": 203,
      "type": "VEC3"
    },
    {
      "bufferView": 12,
      "componentType": 5126,
      "count": 203,
      "type": "VEC2"
    },
    {
      "bufferView": 13,
      "componentType": 5123,
      "count": 600,
      "type": "SCALAR"
    },
    {
      "bufferView": 15,
      "componentType": 5126,
      "count": 141,
      "max": [0.42855215072631836, 3.3455183506011963, -0.1923731565475464],
      "min": [-2.6833691596984863, 0.576338529586792, -2.8546273708343506],
      "type": "VEC3"
    },
    {
      "bufferView": 16,
      "componentType": 5126,
      "count": 141,
      "type": "VEC3"
    },
    {
      "bufferView": 17,
      "componentType": 5126,
      "count": 141,
      "type": "VEC2"
    },
    {
      "bufferView": 18,
      "componentType": 5123,
      "count": 420,
      "type": "SCALAR"
    }
  ],
  "bufferViews": [
    {
      "buffer": 0,
      "byteLength": 19860,
      "byteOffset": 0
    },
    {
      "buffer": 0,
      "byteLength": 19860,
      "byteOffset": 19860
    },
    {
      "buffer": 0,
      "byteLength": 13240,
      "byteOffset": 39720
    },
    {
      "buffer": 0,
      "byteLength": 16218,
      "byteOffset": 52960
    },
    {
      "buffer": 0,
      "byteLength": 266698,
      "byteOffset": 69180
    },
    {
      "buffer": 0,
      "byteLength": 2124,
      "byteOffset": 335880
    },
    {
      "buffer": 0,
      "byteLength": 2124,
      "byteOffset": 338004
    },
    {
      "buffer": 0,
      "byteLength": 1416,
      "byteOffset": 340128
    },
    {
      "buffer": 0,
      "byteLength": 1080,
      "byteOffset": 341544
    },
    {
      "buffer": 0,
      "byteLength": 551180,
      "byteOffset": 342624
    },
    {
      "buffer": 0,
      "byteLength": 2436,
      "byteOffset": 893804
    },
    {
      "buffer": 0,
      "byteLength": 2436,
      "byteOffset": 896240
    },
    {
      "buffer": 0,
      "byteLength": 1624,
      "byteOffset": 898676
    },
    {
      "buffer": 0,
      "byteLength": 1200,
      "byteOffset": 900300
    },
    {
      "buffer": 0,
      "byteLength": 579541,
      "byteOffset": 901500
    },
    {
      "buffer": 0,
      "byteLength": 1692,
      "byteOffset": 1481044
    },
    {
      "buffer": 0,
      "byteLength": 1692,
      "byteOffset": 1482736
    },
    {
      "buffer": 0,
      "byteLength": 1128,
      "byteOffset": 1484428
    },
    {
      "buffer": 0,
      "byteLength": 840,
      "byteOffset": 1485556
    },
    {
      "buffer": 0,
      "byteLength": 310732,
      "byteOffset": 1486396
    }
  ],
  "samplers": [
    {
      "magFilter": 1006,
      "minFilter": 1008,
      "wrapS": 33071,
      "wrapT": 33071
    }
  ],
  "buffers": [
    {
      "byteLength": 1797128,
      "uri": "data:application/octet-stream;base64,"
    }
  ]
}
